<svg xmlns="http://www.w3.org/2000/svg" xmlns:xlink="http://www.w3.org/1999/xlink" aria-hidden="true" role="img" width="64" height="64" preserveAspectRatio="xMidYMid meet" viewBox="0 0 128 128"><radialGradient id="ssvg-id-thinking-facea" cx="63.6" cy="-2088.9" r="56.96" gradientTransform="matrix(1 0 0 -1 0 -2026)" gradientUnits="userSpaceOnUse"><stop offset=".5" stop-color="#fde030"/><stop offset=".919" stop-color="#f7c02b"/><stop offset="1" stop-color="#f4a223"/></radialGradient><path d="M63.6 118.8c-27.9 0-58-17.5-58-55.9S35.7 7 63.6 7c15.5 0 29.8 5.1 40.4 14.4c11.5 10.2 17.6 24.6 17.6 41.5s-6.1 31.2-17.6 41.4c-10.6 9.3-25 14.5-40.4 14.5z" fill="url(#ssvg-id-thinking-facea)"/><linearGradient id="ssvg-id-thinking-faceb" gradientUnits="userSpaceOnUse" x1="63.6" y1="-2144.8" x2="63.6" y2="-2033" gradientTransform="matrix(1 0 0 -1 0 -2026)"><stop offset="0" stop-color="#f4a223"/><stop offset=".081" stop-color="#f7c02b"/><stop offset=".54" stop-color="#fde030" stop-opacity="0"/></linearGradient><path d="M63.6 118.8c-27.9 0-58-17.5-58-55.9S35.7 7 63.6 7c15.5 0 29.8 5.1 40.4 14.4c11.5 10.2 17.6 24.6 17.6 41.5s-6.1 31.2-17.6 41.4c-10.6 9.3-25 14.5-40.4 14.5z" fill="url(#ssvg-id-thinking-faceb)"/><path d="M111.49 29.67c5.33 8.6 8.11 18.84 8.11 30.23c0 16.9-6.1 31.2-17.6 41.4c-10.6 9.3-25 14.5-40.4 14.5c-18.06 0-37.04-7.35-48.18-22.94c10.76 17.66 30.99 25.94 50.18 25.94c15.4 0 29.8-5.2 40.4-14.5c11.5-10.2 17.6-24.5 17.6-41.4c0-12.74-3.47-24.06-10.11-33.23z" fill="#eb8f00"/><g fill="#422b0d"><path d="M76.87 71.31c-.31-.05-.61-.19-.87-.4c-4.29-3.52-9.69-5.89-15.6-6.86c-5.91-.96-11.78-.42-16.97 1.56c-.31.12-.64.15-.95.1c-.69-.11-1.26-.63-1.46-1.33c-.19-.68.03-1.39.58-1.85c5.46-4.62 12.72-6.59 19.92-5.42c7.2 1.17 13.46 5.34 17.18 11.45c.37.61.36 1.35-.03 1.94c-.4.61-1.11.92-1.8.81z"/><path d="M80.77 31.11c4.19 0 8 3.54 8 9.42s-3.81 9.42-8 9.42c-4.19 0-8-3.54-8-9.42s3.81-9.42 8-9.42z"/><path d="M46.14 22.03c-4.19 0-8 3.54-8 9.42s3.81 9.42 8 9.42c4.19 0 8-3.54 8-9.42s-3.8-9.42-8-9.42z"/></g><path d="M79.43 35.46c-1.03-.72-2.58-.49-3.58.95c-1 1.45-.67 2.97.36 3.69c1.03.72 2.58.49 3.58-.95c1.01-1.45.68-2.97-.36-3.69z" fill="#896024"/><path d="M39.73 10.63c-.45-.76-.51-1.68-.16-2.44s1.05-1.28 1.98-1.45c5.3-.88 10.95.43 15.53 3.59c1.7 1.17 3.21 2.57 4.46 4.17c.09.12.16.22.22.33c.67 1.13.45 2.43-.54 3.25c-.9.74-2.41.95-3.58-.08l-.1-.08c-4.3-3.65-9.95-5.83-15.51-5.97c-.96-.01-1.81-.49-2.3-1.32z" fill="#422b0d"/><path d="M92.95 28.52c.77-.44 1.27-1.2 1.35-2.05c.07-.84-.28-1.63-1.01-2.24c-4.17-3.38-9.74-5.04-15.27-4.55c-2.06.18-4.06.65-5.94 1.42c-.14.06-.25.12-.36.18c-1.14.65-1.59 1.89-1.14 3.09a2.74 2.74 0 0 0 3.15 1.7l.12-.02c5.54-1.05 11.53-.15 16.44 2.47c.84.48 1.82.48 2.66 0z" fill="#422b0d"/><path d="M44.65 25.56c-1.03-.72-2.58-.49-3.58.95s-.67 2.97.36 3.69c1.03.72 2.58.49 3.58-.95s.68-2.97-.36-3.69z" fill="#896024"/><linearGradient id="ssvg-id-thinking-facec" gradientUnits="userSpaceOnUse" x1="34.972" y1="106.407" x2="34.722" y2="73.032"><stop offset="0" stop-color="#bf360c"/><stop offset="1" stop-color="#bf360c" stop-opacity=".2"/></linearGradient><path d="M6.48 75.11c1.02-2.61 5.43-2.65 8.69-1.07c6.33 3.07 5.58 9.8 8.75 11.13C27.08 86.5 37.1 78.3 51.17 77c1.59-.15 10.92-1.32 11.83 2.6c.36 1.55-2.28 1.85-2.28 1.85c-5.74 2.13-11.53 4.28-16.66 7.63c-5.8 3.79-10.89 9.16-17.64 10.73c-2.62.61-5.6.53-7.74-1.11c-2.65-2.02-3.25-5.67-4.21-8.86c-1.1-3.65-2.94-7.08-5.36-10.03" opacity=".66" fill="url(#ssvg-id-thinking-facec)"/><radialGradient id="ssvg-id-thinking-faced" cx="41.451" cy="83.65" r="59.211" gradientTransform="matrix(1 0 0 .9441 0 4.678)" gradientUnits="userSpaceOnUse"><stop offset=".268" stop-color="#fff176"/><stop offset="1" stop-color="#ffc400"/></radialGradient><path d="M6.36 75.1c-1.82 2.21 2.05 8.08 2.74 11.08c1.66 7.21-.04 9-.13 15.42c-.11 7.06 2.05 13 7.38 16.79c5.06 3.6 10.63 4.03 18.43 1.7s13.07-3.4 13.47-7.24c.29-2.79-2.08-3.79-2.08-3.79s1.21-.5 1.75-1.79c1.86-4.44-1.85-5.38-1.85-5.38s.56-.6 1.28-2.01c1.11-2.21.94-5.21-2.26-6.19c-1.47-.45-1.88-.21-1.88-.21s1.9-2.16 5.35-3.65c5.38-2.31 11.75-3.71 13.35-5.06c2.31-1.95 2.45-5.85-1.63-7.04c-5.86-1.71-16.64 2.31-23.19 6.46c-6.58 4.17-12.59 6.43-14.58 5.67c-1.99-.76-3.25-2.05-4.01-5.04c-1.41-5.54-2.49-7.7-4.89-9.78c-1.98-1.74-5.85-1.64-7.25.06z" fill="url(#ssvg-id-thinking-faced)"/><linearGradient id="ssvg-id-thinking-facee" gradientUnits="userSpaceOnUse" x1="39.278" y1="94.634" x2="64.474" y2="82.12"><stop offset=".127" stop-color="#da6727"/><stop offset="1" stop-color="#ffc400"/></linearGradient><path d="M38.88 96.78s-1.47-.96 4.41-5.69c3.99-3.21 6.3-3.79 11.09-4.97c9.69-2.38 9.07-5.43 9.07-5.43c.52 4.49-3.92 5.49-7.17 6.51c-.34.11-.66.23-.97.31c-11.16 2.82-15.05 10.16-16.43 9.27z" fill="url(#ssvg-id-thinking-facee)"/><linearGradient id="ssvg-id-thinking-facef" gradientUnits="userSpaceOnUse" x1="37.965" y1="119.474" x2="38.176" y2="81.501"><stop offset=".127" stop-color="#da6727"/><stop offset="1" stop-color="#ffc400"/></linearGradient><path d="M47.98 107.91c.55-.86 1.29-2.88.65-4.82c-.24-.73-.74-1.62-1.76-2.35c.12-.16.24-.31.35-.49c.55-.86 1.26-2.84.34-4.65c-.94-1.86-3.38-2.16-3.38-2.16s1.59.73 1.94 2.34c.27 1.24-.24 3.12-.5 3.62c-1.12 2.19-2.42 2.61-3.75 2.88c-2.42.48-1.67 1.48-1.67 1.48c.2.8 3.07.06 5.23-1.56c.65.37 1.08.88 1.29 1.52c.39 1.21-.14 2.53-.39 3.05c-.64 1.31-1.77 2.48-3.53 2.96c-2.16.59-1.56 1.39-1.56 1.39c.09-.01.1 1.7 4.52-1.1c.52 1 1.21 3.22-.17 4.67c-4.68 4.92-18.48 6.83-18.48 6.83c6.97 0 16.62-2.7 19.6-5.18c1.06-.88 1.85-2.14 1.85-3.75c0-1.73-.5-2.97-1.38-3.7c.3-.3.56-.61.8-.98z" fill="url(#ssvg-id-thinking-facef)"/></svg>